<svg width="38" height="39" viewBox="0 0 38 39" fill="none" xmlns="http://www.w3.org/2000/svg">
<path d="M32.4565 0H5.54234C3.79235 0 2.37524 1.45501 2.37524 3.24975C2.37524 3.24975 2.37524 3.25036 2.37524 3.25097V39H29.2929V6.50019L32.4565 0Z" fill="#FECD57"/>
<path d="M32.4564 0C30.7076 0 29.2905 1.45501 29.2905 3.24975C29.2905 5.04511 29.2905 6.50019 29.2905 6.50019H32.4564C34.2052 6.50019 35.6247 5.04511 35.6247 3.24975C35.6246 1.45493 34.2052 0 32.4564 0Z" fill="#F5BA45"/>
<path d="M25.3336 22.7491H23.7495C23.7495 22.3016 23.3947 21.9375 22.9586 21.9375C22.5203 21.9375 22.1677 22.3016 22.1677 22.7491C22.1677 22.3016 21.8129 21.9375 21.3745 21.9375C20.9384 21.9375 20.5836 22.3016 20.5836 22.7491H19C18.5629 22.7491 18.208 23.1133 18.208 23.5633C18.208 24.0107 18.5629 24.375 19 24.375H25.3336C25.7696 24.375 26.1244 24.0107 26.1244 23.5633C26.1244 23.1134 25.7696 22.7491 25.3336 22.7491Z" fill="#424953"/>
<path d="M7.35709 7.88672C7.49975 8.03435 7.69807 8.12477 7.91717 8.12477C8.13523 8.12477 8.33355 8.03427 8.47613 7.88672L9.50016 6.83643L10.5229 7.88672C10.6668 8.03435 10.865 8.12477 11.0831 8.12477C11.3022 8.12477 11.4994 8.03427 11.6432 7.88672L13.2261 6.26215C13.37 6.11513 13.4581 5.91221 13.4581 5.68726C13.4581 5.23852 13.1043 4.87494 12.6672 4.87494C12.4481 4.87494 12.2497 4.96597 12.1071 5.11359L11.0831 6.16335L10.0603 5.11359C9.91646 4.96597 9.71933 4.87494 9.50016 4.87494C9.28098 4.87494 9.08266 4.96597 8.94001 5.11359L7.91717 6.16335L6.89321 5.11359C6.75056 4.96597 6.55224 4.87494 6.33306 4.87494C5.8959 4.87494 5.54224 5.23852 5.54224 5.68726C5.54224 5.91221 5.63041 6.11513 5.77418 6.26215L7.35709 7.88672Z" fill="#424953"/>
<path d="M25.3336 32.4991C25.1156 32.4991 24.9161 32.5908 24.7723 32.7371L23.7495 33.7893L22.7267 32.7371C22.5828 32.5908 22.3857 32.4991 22.1677 32.4991C21.9474 32.4991 21.7503 32.5908 21.6064 32.7371L20.5836 33.7893L19.5602 32.7371C19.4164 32.5908 19.2182 32.4991 19 32.4991C18.5629 32.4991 18.208 32.8633 18.208 33.3133C18.208 33.537 18.2973 33.7394 18.4399 33.8869L20.0229 35.5127C20.1667 35.6592 20.3655 35.7508 20.5836 35.7508C20.8017 35.7508 20.9988 35.6592 21.1425 35.5127L22.1677 34.4618L23.1906 35.5127C23.3344 35.6592 23.5314 35.7508 23.7495 35.7508C23.9676 35.7508 24.167 35.6592 24.3108 35.5127L25.8926 33.8869C26.0365 33.7393 26.1245 33.5369 26.1245 33.3133C26.1244 32.8634 25.7696 32.4991 25.3336 32.4991Z" fill="#424953"/>
<path d="M9.50016 9.74994C7.31419 9.74994 5.54224 11.5685 5.54224 13.8126C5.54224 16.0562 7.31419 17.8748 9.50016 17.8748C11.6861 17.8748 13.4581 16.0562 13.4581 13.8126C13.4581 11.5685 11.6861 9.74994 9.50016 9.74994ZM9.50016 16.2502C8.19082 16.2502 7.12515 15.1564 7.12515 13.8126C7.12515 12.4684 8.19082 11.3752 9.50016 11.3752C10.8094 11.3752 11.8752 12.4684 11.8752 13.8126C11.8752 15.1564 10.8093 16.2502 9.50016 16.2502Z" fill="#424953"/>
<path d="M9.5001 14.6249C9.93733 14.6249 10.2922 14.2614 10.2922 13.8126C10.2922 13.3639 9.93733 12.9998 9.5001 12.9998C9.06286 12.9998 8.70801 13.3639 8.70801 13.8126C8.70801 14.2614 9.06286 14.6249 9.5001 14.6249Z" fill="#424953"/>
<path d="M26.1244 4.87494H18.208V12.9998H26.1244V4.87494ZM24.5427 11.3752H19.7921V6.5002H24.5427V11.3752Z" fill="#424953"/>
<path d="M6.33306 21.1258H7.91717C8.3544 21.1258 8.70807 20.7615 8.70807 20.3123C8.70807 19.8635 8.35433 19.4999 7.91717 19.4999H6.33306C5.8959 19.4999 5.54224 19.8635 5.54224 20.3123C5.54224 20.7615 5.8959 21.1258 6.33306 21.1258Z" fill="#424953"/>
<path d="M11.0831 19.4999C10.6458 19.4999 10.2922 19.8635 10.2922 20.3123C10.2922 20.7615 10.6459 21.1258 11.0831 21.1258H12.6672C13.1044 21.1258 13.4581 20.7615 13.4581 20.3123C13.4581 19.8635 13.1043 19.4999 12.6672 19.4999H11.0831Z" fill="#424953"/>
<path d="M11.8856 22.7491H7.12515H5.66515H5.54224V30.8758H7.12515V24.375H11.8856V29.2499H10.3026V26.0007H8.71853V29.2499V30.8758H10.3026H11.8856H12.8643H13.4685V22.7491H12.2219H11.8856Z" fill="#424953"/>
<path d="M12.6672 34.125C8.13412 34.125 7.22721 33.2811 7.1066 33.137C7.0277 32.7729 6.71226 32.4991 6.33306 32.4991C5.8982 32.4991 5.54454 32.861 5.54224 33.3073C5.54224 33.3084 5.54224 33.3108 5.54224 33.3108C5.54224 33.3108 5.54224 33.3121 5.54224 33.3132V33.3144C5.54224 33.4751 5.58981 33.8786 6.00382 34.3059C6.93151 35.264 9.17314 35.7508 12.6672 35.7508C13.1044 35.7508 13.4581 35.3866 13.4581 34.9367C13.4581 34.4891 13.1043 34.125 12.6672 34.125ZM7.12515 33.3074C7.12515 33.2871 7.12285 33.2657 7.12166 33.2454C7.12397 33.2633 7.12515 33.2847 7.12515 33.3074ZM7.12515 33.318C7.12515 33.3168 7.12515 33.3157 7.12515 33.3144C7.12515 33.3157 7.12515 33.3157 7.12515 33.318Z" fill="#424953"/>
<path d="M18.208 26.8125C18.208 29.0571 19.9799 30.8758 22.1677 30.8758C24.3525 30.8758 26.1245 29.0571 26.1245 26.8125V26.0007H18.2068L18.208 26.8125ZM24.4058 27.6241C24.0789 28.5716 23.1998 29.2499 22.1677 29.2499C21.1333 29.2499 20.2543 28.5716 19.9266 27.6241H24.4058Z" fill="#424953"/>
<path d="M22.1724 14.6249C19.987 14.6249 18.2139 17.4689 18.2139 17.4689C18.2139 17.4689 19.987 20.3123 22.1724 20.3123C24.3596 20.3123 26.1316 17.4689 26.1316 17.4689C26.1316 17.4689 24.3596 14.6249 22.1724 14.6249ZM23.8307 17.7629C23.2185 18.3591 22.6293 18.6876 22.1724 18.6876C21.7155 18.6876 21.1263 18.3591 20.5164 17.7629C20.4143 17.6647 20.3192 17.5653 20.2311 17.4689C20.3192 17.3719 20.4143 17.2725 20.5164 17.1743C21.1263 16.5781 21.7155 16.2502 22.1724 16.2502C22.6293 16.2502 23.2185 16.5781 23.8307 17.1743C23.9305 17.2725 24.0256 17.3719 24.1137 17.4689C24.0256 17.5653 23.9305 17.6647 23.8307 17.7629Z" fill="#424953"/>
<path d="M33.2496 33.3133C32.3753 33.3133 31.6655 32.5837 31.6655 31.6874V12.5243L33.2496 10.8991L34.8314 12.5243V31.6874C34.8314 32.5837 34.1217 33.3133 33.2496 33.3133Z" fill="#646C77"/>
<path d="M33.2495 9.74994L30.8745 12.1874V31.6874C30.8745 33.0335 31.9368 34.125 33.2495 34.125C34.56 34.125 35.6246 33.0335 35.6246 31.6874V12.1874L33.2495 9.74994ZM34.0405 31.6874C34.0405 32.1349 33.6856 32.4991 33.2496 32.4991C32.8135 32.4991 32.4564 32.1349 32.4564 31.6874V12.8605L33.2496 12.0482L34.0405 12.8605V31.6874Z" fill="#424953"/>
<path d="M15.7879 0C15.2997 0.65868 15.041 1.4806 15.041 2.41488V38.9999H16.624V2.41488C16.624 1.47047 16.9916 0.804478 17.7477 0.379653C18.1745 0.139247 18.6175 0.0392298 18.8598 0C18.8598 0 15.7879 0 15.7879 0Z" fill="#F5BA45"/>
</svg>
