<svg width="120" height="120" viewBox="0 0 120 120" fill="none" xmlns="http://www.w3.org/2000/svg">
<g clip-path="url(#clip0_104_122)">
<path d="M59.9999 120C93.1369 120 120 93.1369 120 59.9999C120 26.8629 93.1369 0 59.9999 0C26.8629 0 0 26.8629 0 59.9999C0 93.1369 26.8629 120 59.9999 120Z" fill="#B6E2EB"/>
<path d="M60.1618 80.8014L86.0955 54.8004C86.8602 54.034 86.8685 52.7852 86.1011 52.0208C85.3326 51.2581 84.0993 51.2523 83.3364 52.017L57.386 78.037L46.143 89.3246C40.9303 94.5355 35.9393 94.5393 30.433 89.334C25.9308 84.4179 26.181 79.4893 31.3027 74.3694L79.547 26.1241C83.2475 22.4236 88.1553 24.9322 89.9487 26.7295C91.2752 27.943 92.0217 29.6296 92.0614 31.4296C92.106 33.3301 91.3451 35.1605 89.9204 36.5827L53.8 72.7039C50.0663 76.4375 48.4319 74.8062 47.2629 73.6341C46.2577 72.6261 44.3779 70.7492 47.6381 67.491L70.3592 44.8279C70.3592 44.8279 71.7158 43.4436 71.7044 43.4533C72.4093 42.683 72.4093 41.4922 71.6637 40.7466C70.9142 40.0009 69.7338 39.9895 68.9598 40.702C68.9691 40.6926 44.8651 64.7182 44.8651 64.7182C39.8778 69.7035 42.1953 74.1109 44.4881 76.4074C48.9276 80.8432 53.7795 78.2672 56.5695 75.4751L92.6916 39.3578C94.8793 37.1684 96.0465 34.3194 95.9819 31.3397C95.9118 28.4803 94.701 25.7681 92.6547 23.8977C89.2828 20.5238 82.0664 18.0635 76.776 23.3558L28.5324 71.5954C22.0075 78.1203 21.6837 85.5869 27.6427 92.0815C34.7285 98.793 42.248 98.7616 48.9188 92.0966L60.1618 80.8014Z" fill="#357180"/>
</g>
<defs>
<clipPath id="clip0_104_122">
<rect width="120" height="120" fill="white"/>
</clipPath>
</defs>
</svg>
