<svg width="40" height="25" viewBox="0 0 40 25" fill="none" xmlns="http://www.w3.org/2000/svg">
<path d="M37.5804 9.4781V12.0161C35.8506 11.5385 32.6441 10.8038 28.2571 10.4348C26.3902 10.2772 24.1894 10.1785 21.6963 10.2128C16.436 10.2862 9.87674 10.9548 2.42041 12.9238V10.3932C3.45713 10.1262 4.49385 9.88052 5.52978 9.65443V7.3124C5.52978 6.7067 6.02041 6.21529 6.62611 6.21529C7.23268 6.21529 7.72322 6.7067 7.72322 7.3124V9.20545C8.57299 9.04216 9.42119 8.89357 10.2685 8.7581V6.53685C10.2685 5.83318 10.8392 5.26256 11.5428 5.26256C12.2473 5.26256 12.8179 5.83318 12.8179 6.53685V8.3899C13.6685 8.28052 14.5175 8.18662 15.364 8.10498V5.8299C15.364 5.47802 15.5069 5.15967 15.7371 4.92865C15.9681 4.69842 16.2873 4.5556 16.6391 4.5556C17.3428 4.5556 17.9134 5.12623 17.9134 5.8299V7.90256C19.0367 7.83232 20.155 7.78662 21.266 7.76623C23.7485 7.72052 26.1934 7.79888 28.5763 8.00381C32.6106 8.35076 35.6653 8.98427 37.5804 9.4781Z" fill="#8A6746"/>
<path d="M37.5804 16.3916V18.8757C32.6147 18.0096 27.587 17.6585 22.9943 17.5899C19.1878 17.5312 15.68 17.6675 12.751 17.865C8.41549 18.1573 4.79182 18.6153 2.42041 18.9654V16.4878C3.31104 16.3589 4.35432 16.2176 5.52978 16.0781V14.1083C5.52978 13.5026 6.02041 13.012 6.62611 13.012C7.23268 13.012 7.72322 13.5026 7.72322 14.1083V15.8349C8.52893 15.7524 9.37877 15.6725 10.2685 15.5973V13.3712C10.2685 12.6675 10.8392 12.0969 11.5428 12.0969C12.2473 12.0969 12.8179 12.6675 12.8179 13.3712V15.4063C13.6269 15.3532 14.4775 15.305 15.364 15.2642V12.9508C15.364 12.5989 15.5069 12.2806 15.7371 12.0496C15.9681 11.8193 16.2873 11.6765 16.6391 11.6765C17.3428 11.6765 17.9134 12.2471 17.9134 12.9508V15.1712C19.3934 15.132 20.9501 15.1165 22.5624 15.1345C23.8056 15.1484 25.0824 15.1826 26.3828 15.2406V12.9508C26.3828 12.5989 26.5256 12.2806 26.7558 12.0496C26.9868 11.8193 27.3052 11.6765 27.6571 11.6765C28.3607 11.6765 28.9321 12.2471 28.9321 12.9508V15.3859C29.7077 15.4389 30.4888 15.5026 31.2742 15.5753V13.7696C31.2742 13.0659 31.8448 12.4953 32.5492 12.4953C33.2529 12.4953 33.8235 13.0659 33.8235 13.7696V15.8479C35.0735 15.9997 36.3281 16.1793 37.5804 16.3916Z" fill="#8A6746"/>
<path d="M20.3845 2.75646C14.5242 2.89771 9.80986 3.91888 6.79268 4.7924C4.86041 5.35161 3.37799 5.91732 2.42041 6.32138V3.67896C3.36408 3.31326 4.57385 2.88794 6.02775 2.46427C9.13963 1.55654 13.9649 0.500989 19.9559 0.318176L20.3845 2.75646Z" fill="#8A6746"/>
<path d="M40 22.3737V24.8226H0V22.3737H5.52977V20.3312C5.52977 19.7255 6.02039 19.2341 6.62609 19.2341C7.23266 19.2341 7.7232 19.7255 7.7232 20.3312V22.3737H10.2685V20.168C10.2685 19.4635 10.8391 18.8929 11.5428 18.8929C12.2473 18.8929 12.8179 19.4635 12.8179 20.168V22.3737H15.364V20.168C15.364 19.8153 15.5069 19.4969 15.737 19.2659C15.968 19.0357 16.2873 18.8929 16.6391 18.8929C17.3427 18.8929 17.9134 19.4635 17.9134 20.168V22.3737H26.3827V20.5092C26.3827 20.1573 26.5256 19.8382 26.7558 19.608C26.9868 19.3769 27.3052 19.2341 27.657 19.2341C28.3607 19.2341 28.9321 19.8055 28.9321 20.5091V22.3736H31.2741V20.5091C31.2741 19.8055 31.8448 19.2341 32.5492 19.2341C33.2529 19.2341 33.8235 19.8055 33.8235 20.5091V22.3736H40V22.3737Z" fill="#8A6746"/>
</svg>
