<svg width="35" height="41" viewBox="0 0 35 41" fill="none" xmlns="http://www.w3.org/2000/svg">
<path d="M34.4224 36.1992H0.577637V39.9089H34.4224V36.1992Z" fill="#FECD57"/>
<path d="M17.3431 10.4978L15.538 15.5446C13.7968 14.8317 12.4922 11.9046 12.4922 8.40136C12.4922 4.3642 14.2249 1.09082 16.362 1.09082C18.4991 1.09082 20.231 4.3642 20.231 8.40136C20.231 10.7917 19.6242 12.9143 18.6854 14.2469L17.3439 10.4963L17.3431 10.4978Z" fill="#FECD57"/>
<path d="M25.7742 18.5503L31.9313 35.7624H28.8693L25.7734 18.5517L25.7742 18.5503Z" fill="#FECD57"/>
<path d="M22.9995 26.306L26.3787 35.7523H21.6287L17.343 10.4978L17.3438 10.4963L18.6853 14.2469L22.9995 26.306Z" fill="#FECD57"/>
<path d="M17.7651 35.7522L17.769 35.7624H12.8533L10.2581 14.7677L13.0374 22.5351L17.7651 35.7522Z" fill="#FECD57"/>
<path d="M26.3787 35.7523L22.9995 26.306L25.7734 18.5518L28.8693 35.7625H21.6302L21.6287 35.7523H26.3787Z" fill="#FECD57"/>
<path d="M17.3431 10.4978L21.6287 35.7523H20.4651H19.6203H17.7651L13.0374 22.5351L15.5379 15.5446L17.3431 10.4978Z" fill="#FECD57"/>
<path d="M10.2579 14.7677L12.8532 35.7624H2.7478L10.2579 14.7677Z" fill="#FECD57"/>
<path d="M0.577584 36.8539H34.4224C34.7415 36.8539 35 36.3653 35 35.7627C35 35.1601 34.7415 34.6716 34.4224 34.6716H32.2378L26.2526 17.9397C26.1452 17.6394 25.9659 17.4595 25.774 17.4595C25.5823 17.4595 25.4029 17.6394 25.2955 17.9396L22.9993 24.3577L19.4524 14.4426C20.3198 12.8671 20.8084 10.7172 20.8084 8.40167C20.8084 3.76889 18.8136 0 16.3617 0C13.9094 0 11.9143 3.76904 11.9143 8.40167C11.9143 11.7994 13.0174 14.8409 14.6289 16.137L13.0372 20.5866L10.7369 14.1564C10.6295 13.8561 10.4502 13.6762 10.2584 13.6762C10.0665 13.6762 9.88724 13.8561 9.77981 14.1564L2.44087 34.6716H0.577584C0.258527 34.6716 0 35.1601 0 35.7627C0 36.3653 0.258527 36.8539 0.577584 36.8539ZM13.3116 34.6716L11.5325 20.2779L16.6816 34.6716H13.3116ZM22.0517 34.6716L19.1257 17.4273L25.2947 34.6716H22.0517ZM29.2828 34.6716L27.7049 25.8969L30.8437 34.6716H29.2828ZM25.6011 20.9826L28.0627 34.6716H26.6889L23.6964 26.3063L25.6011 20.9826ZM13.0694 8.40167C13.0694 4.97219 14.5463 2.18225 16.3617 2.18225C18.1766 2.18225 19.6531 4.97233 19.6531 8.40167C19.6531 9.98395 19.3446 11.4616 18.7921 12.5971L17.8221 9.8856C17.7147 9.58547 17.5354 9.4055 17.3436 9.4055C17.1517 9.4055 16.9724 9.58547 16.865 9.88575L15.292 14.2828C13.9843 13.4321 13.0694 11.0647 13.0694 8.40167ZM17.1563 12.9688L20.8387 34.6716L18.0721 34.6614L13.7342 22.5352L17.1563 12.9688ZM9.99645 17.4478L12.1253 34.6716H3.83501L9.99645 17.4478Z" fill="#333333"/>
<path d="M34.4224 38.8177H0.577584C0.258527 38.8177 0 39.3063 0 39.9089C0 40.5115 0.258527 41 0.577584 41H34.4224C34.7415 41 35 40.5115 35 39.9089C35 39.3063 34.7414 38.8177 34.4224 38.8177Z" fill="#333333"/>
</svg>
