<svg width="120" height="120" viewBox="0 0 120 120" fill="none" xmlns="http://www.w3.org/2000/svg">
<g clip-path="url(#clip0_104_200)">
<path d="M0 60.0014C0 93.1411 26.8608 120.001 59.9991 120C93.1392 120.001 120 93.1411 120 60.0014C120.002 26.8617 93.1392 0 59.9991 0C26.8608 0 0 26.8627 0 60.0014Z" fill="#B6E2EB"/>
<path d="M120 60.0015C120 59.9 119.996 59.799 119.996 59.6975C119.991 58.6829 92.0759 32.0407 91.9634 31.924C90.3727 30.1039 88.137 28.9025 85.5661 28.5886C81.4509 28.0793 77.6116 29.9822 75.5498 33.5429L74.2484 35.79C73.8131 36.5417 74.0255 37.4597 74.6747 37.9943C74.7656 38.127 92.5903 55.9341 92.6184 55.969C84.5276 54.1566 76.1791 54.4275 68.1631 56.7493C68.1398 56.7265 68.1157 56.7045 68.0925 56.682C60.7329 49.3095 42.9727 31.5593 42.8538 31.4506C40.6931 29.2761 37.6671 28.194 34.459 28.5886C30.3642 29.0886 27.1149 31.8364 25.9781 35.7586L18.0816 63.0237C18.004 63.2914 18.0094 63.5572 18.0556 63.8143C18.0115 64.3275 18.0016 64.8483 18.0544 65.378L18.9312 74.175C19.3739 78.6143 21.2192 82.6013 23.948 85.628C24.0542 85.752 58.0214 119.559 58.3873 119.978C58.9231 119.992 59.4602 120 59.9993 120C93.139 120.001 120 93.1411 120 60.0015Z" fill="#6ACAB9"/>
<path d="M101.918 63.0136L94.0242 35.7565C92.888 31.8354 89.6395 29.0883 85.546 28.5886C81.432 28.0795 77.5938 29.9819 75.5327 33.5414L74.2317 35.7881C73.7475 36.6244 74.0327 37.6938 74.869 38.1783C75.7062 38.6625 76.7756 38.3773 77.2592 37.541L78.5602 35.2952C80.1687 32.5172 82.9962 31.7944 85.1217 32.062C87.2215 32.3182 89.7799 33.679 90.664 36.7305L96.5353 57.0033C86.8221 53.9819 76.5736 54.0044 66.8726 57.0944H66.8719C63.5906 58.14 61.4726 61.5584 61.7897 65.25H58.2113C58.5284 61.5586 56.4101 58.14 53.1279 57.0944C43.4269 54.0044 33.1784 53.9819 23.4652 57.0033L29.3365 36.7305C30.2208 33.6792 32.779 32.3182 34.8788 32.062C37.005 31.8005 39.8316 32.5191 41.4403 35.2945L42.7413 37.5412C43.2242 38.3775 44.295 38.6627 45.1315 38.1785C45.968 37.6943 46.253 36.6248 45.7688 35.7884L44.4677 33.5409C42.4064 29.9829 38.5699 28.0823 34.4545 28.5888C30.3609 29.0885 27.1123 31.8359 25.9763 35.7567L18.0818 63.0136C18.0042 63.281 18.0096 63.547 18.0556 63.8039C18.0115 64.3169 18.0016 64.8377 18.0544 65.3672L18.9309 74.1614C19.781 82.6849 25.7255 89.6309 33.3879 91.0549C34.9622 91.3472 36.5459 91.4932 38.1314 91.4932C39.716 91.4932 41.3013 91.3472 42.8749 91.0549C50.5374 89.6309 56.4823 82.6852 57.3319 74.1614L57.8714 68.749H62.1281L62.6677 74.1614C63.5177 82.6849 69.4622 89.6309 77.1246 91.0549C78.6989 91.3472 80.2826 91.4932 81.8681 91.4932C83.4527 91.4932 85.0381 91.3472 86.6116 91.0549C94.2741 89.6309 100.219 82.6852 101.069 74.1614L101.945 65.3672C101.998 64.8377 101.988 64.3169 101.944 63.8039C101.99 63.547 101.996 63.281 101.918 63.0136ZM54.7268 65.0201L53.8502 73.8143C53.1539 80.7984 48.3781 86.4734 42.236 87.6136C39.5128 88.121 36.75 88.121 34.0268 87.6136C27.8848 86.4731 23.1089 80.7987 22.4126 73.8143L21.536 65.0201C21.3293 62.951 22.4731 60.9771 24.1971 60.4275H24.1964C33.3148 57.5257 42.9511 57.5257 52.0659 60.4275C53.7898 60.9771 54.9335 62.9512 54.7268 65.0201ZM98.4638 65.0201L97.5872 73.8143C96.8909 80.7984 92.115 86.4734 85.973 87.6136C83.2498 88.121 80.487 88.121 77.7638 87.6136C71.6217 86.4731 66.8459 80.7987 66.1495 73.8143L65.273 65.0201C65.0663 62.951 66.21 60.9771 67.9341 60.4275H67.9334C77.0517 57.5257 86.6881 57.5257 95.8029 60.4275C97.5267 60.9771 98.6705 62.9512 98.4638 65.0201Z" fill="#F4F6F9"/>
</g>
<defs>
<clipPath id="clip0_104_200">
<rect width="120" height="120" fill="white"/>
</clipPath>
</defs>
</svg>
