<svg width="38" height="37" viewBox="0 0 38 37" fill="none" xmlns="http://www.w3.org/2000/svg">
<path d="M19.0001 10.7133C21.0901 10.7133 22.7367 9.12391 22.8001 7.16769C22.8001 7.10658 22.8634 7.0454 22.9268 7.0454C23.5601 6.9843 24.0668 6.18954 24.0668 5.21147C24.0668 4.53901 23.8135 3.92772 23.4335 3.62204C23.0535 3.31636 22.8002 2.88847 22.8002 2.39939V1.84921C22.8002 1.48243 22.4835 1.05453 22.1035 0.993355L21.8502 0.932248C19.9502 0.504355 17.9869 0.504355 16.1502 0.932248L15.8969 0.993355C15.5169 1.05446 15.2002 1.48243 15.2002 1.84921V2.39939C15.2002 2.88847 14.9469 3.31636 14.5669 3.62204C14.1869 3.92772 13.9336 4.53901 13.9336 5.21147C13.9336 6.18962 14.4403 6.9843 15.0736 7.0454C15.1369 7.0454 15.2003 7.10651 15.2003 7.16769C15.2634 9.12391 16.91 10.7133 19.0001 10.7133Z" fill="#FFA800"/>
<path d="M11.0833 16.4597C12.92 14.3201 14.1866 11.8748 15.8333 9.49066H10.1333C11.78 11.6303 11.7167 14.1367 10.7666 16.8265L11.0833 16.4597Z" fill="#FECD57"/>
<path d="M26.9168 16.4597C25.0801 14.3201 23.8134 11.8748 22.1667 9.49066C22.5467 9.49066 27.8668 9.49066 27.8668 9.49066C26.2201 11.6303 26.2834 14.1367 27.2335 16.8265L26.9168 16.4597Z" fill="#FECD57"/>
<path d="M15.2001 7.16769C15.2001 7.10659 15.1368 7.04541 15.0734 7.04541C14.4401 6.9843 13.9334 6.18955 13.9334 5.21147C13.9334 4.53901 14.1867 3.92772 14.5667 3.62204C14.9467 3.31636 15.2 2.88847 15.2 2.3994V1.84922C15.2 1.42132 15.4533 1.11564 15.8333 0.993358V0.932251H13.9333L10.1333 9.4907H15.8333V9.0628C15.4534 8.51263 15.2001 7.84016 15.2001 7.16769Z" fill="#FECD57"/>
<path d="M24.0666 0.932251H22.1666V0.993358C22.5466 1.11564 22.7999 1.48243 22.7999 1.84922V2.3994C22.7999 2.88847 23.0532 3.31636 23.4332 3.62204C23.8132 3.92772 24.0665 4.53901 24.0665 5.21147C24.0665 6.18962 23.5598 6.9843 22.9265 7.04541C22.8632 7.04541 22.7998 7.10651 22.7998 7.16769C22.7998 7.90127 22.5465 8.51263 22.1665 9.0628V9.4907H27.8665L24.0666 0.932251Z" fill="#FECD57"/>
<path d="M22.1666 9.49067L21.8499 9.42957C21.8499 9.42957 21.8499 9.42957 21.7866 9.49067H22.1666Z" fill="#FECD57"/>
<path d="M26.4733 15.9095C24.7633 13.8922 23.6866 11.6303 22.1666 9.49066C21.4699 10.1631 20.0133 10.7133 19 10.7133C17.9867 10.7133 16.53 10.1631 15.8333 9.49066C14.1866 11.8748 12.92 14.3201 11.0833 16.4597L10.7666 16.8265H27.2332L26.6633 16.154C26.5999 16.0929 26.5366 16.0318 26.4733 15.9095Z" fill="#FECD57"/>
<path d="M34.8334 31.4982L27.2334 16.8265H10.7667L3.16665 31.4982C1.77329 31.4982 0.633301 32.5985 0.633301 33.9434V35.7774C0.633301 36.1442 0.886606 36.3887 1.2666 36.3887H11.3999H26.6H36.7333C37.1133 36.3887 37.3666 36.1442 37.3666 35.7774V33.9434C37.3667 32.5985 36.2267 31.4982 34.8334 31.4982Z" fill="#FECD57"/>
<path d="M9.50004 31.4981H3.16665C1.77329 31.4981 0.633301 32.5985 0.633301 33.9434V35.7773C0.633301 36.1441 0.886606 36.3886 1.2666 36.3886H11.3999C11.7799 36.3886 12.0332 36.1441 12.0332 35.7773V33.9434C12.0334 32.5985 10.8933 31.4981 9.50004 31.4981Z" fill="#FFA800"/>
<path d="M34.8335 31.4982H28.5002C27.1068 31.4982 25.9668 32.5985 25.9668 33.9435V35.7774C25.9668 36.1442 26.2201 36.3887 26.6001 36.3887H36.7334C37.1134 36.3887 37.3667 36.1442 37.3667 35.7774V33.9435C37.3667 32.5985 36.2268 31.4982 34.8335 31.4982Z" fill="#FFA800"/>
<path d="M36.7334 37H20.9001C20.5201 37 20.2668 36.7555 20.2668 36.3887C20.2668 36.0219 20.5201 35.7774 20.9001 35.7774H36.7334V33.9434C36.7334 32.9042 35.9101 32.1095 34.8334 32.1095C34.5801 32.1095 34.3901 31.9872 34.2634 31.7427L26.8534 17.4378H11.1467L3.73672 31.7426C3.61003 31.9871 3.42003 32.1094 3.16673 32.1094C2.09005 32.1094 1.26675 32.9041 1.26675 33.9433V35.7772H17.1001C17.4801 35.7772 17.7334 36.0217 17.7334 36.3885C17.7334 36.7553 17.4801 36.9998 17.1001 36.9998H1.26668C0.569993 36.9998 0 36.4496 0 35.7772V33.9432C0 32.4149 1.20337 31.1312 2.78666 30.8867L10.1966 16.5207C10.3233 16.3373 10.5133 16.1539 10.7666 16.1539H27.2333C27.4866 16.1539 27.6766 16.2762 27.8033 16.5207L35.2133 30.8867C36.7966 31.07 37.9999 32.3538 37.9999 33.9432V35.7772C38.0001 36.4498 37.4301 37 36.7334 37Z" fill="black"/>
<path d="M11.4 37H1.26668C0.569993 37 0 36.4498 0 35.7774V33.9434C0 32.2317 1.39337 30.8868 3.16665 30.8868H9.49996C11.2733 30.8868 12.6666 32.2318 12.6666 33.9434V35.7774C12.6667 36.4498 12.0967 37 11.4 37ZM3.16665 32.1095C2.08998 32.1095 1.26668 32.9042 1.26668 33.9434V35.7774H11.4V33.9434C11.4 32.9042 10.5767 32.1095 9.50004 32.1095H3.16665Z" fill="black"/>
<path d="M36.7335 37H26.6002C25.9035 37 25.3335 36.4498 25.3335 35.7774V33.9434C25.3335 32.2317 26.7269 30.8868 28.5001 30.8868H34.8335C36.6068 30.8868 38.0001 32.2318 38.0001 33.9434V35.7774C38.0002 36.4498 37.4302 37 36.7335 37ZM28.5001 32.1095C27.4235 32.1095 26.6002 32.9042 26.6002 33.9434V35.7774H36.7335V33.9434C36.7335 32.9042 35.9102 32.1095 34.8335 32.1095H28.5001Z" fill="black"/>
<path d="M19.0001 11.3247C16.7201 11.3247 14.82 9.67412 14.5667 7.53451C13.8067 7.22883 13.3 6.31186 13.3 5.2115C13.3 4.35564 13.6167 3.62207 14.1233 3.19418C14.3133 3.01078 14.5666 2.76628 14.5666 2.3995V1.84917C14.5666 1.17671 15.0733 0.56542 15.77 0.382027L16.0233 0.32092C17.9867 -0.106973 20.0767 -0.106973 22.04 0.32092L22.2933 0.382027C22.9266 0.504313 23.4333 1.17671 23.4333 1.84917V2.39935C23.4333 2.76614 23.6866 3.01064 23.8766 3.19403C24.3833 3.62192 24.6999 4.35557 24.6999 5.21136C24.6999 6.31172 24.1932 7.22868 23.4332 7.53436C23.18 9.67405 21.28 11.3247 19.0001 11.3247ZM19.0001 1.23789C18.1134 1.23789 17.1634 1.36017 16.2767 1.54357L16.0234 1.60467C15.8967 1.60467 15.8334 1.78807 15.8334 1.84917V2.39935C15.8334 3.01064 15.5167 3.622 15.0101 4.11107C14.8201 4.23336 14.5668 4.66125 14.5668 5.21143C14.5668 5.945 14.9468 6.37297 15.2001 6.43408C15.5801 6.49518 15.8334 6.80086 15.8334 7.16765C15.8967 8.81819 17.2901 10.102 19.0001 10.102C20.71 10.102 22.1034 8.81826 22.1667 7.10654C22.1667 6.73976 22.4834 6.43408 22.8 6.43408C23.0533 6.37297 23.4333 5.945 23.4333 5.21143C23.4333 4.66125 23.18 4.23328 22.99 4.11107C22.4833 3.622 22.1667 3.01071 22.1667 2.39935V1.84917C22.1667 1.72689 22.04 1.60467 21.9767 1.60467L21.7234 1.54357C20.8367 1.3601 19.8867 1.23789 19.0001 1.23789Z" fill="black"/>
<path d="M17.1001 5.82279H16.4668C16.0868 5.82279 15.8335 5.57829 15.8335 5.21151C15.8335 4.84472 16.0868 4.60022 16.4668 4.60022H17.1001C17.4801 4.60022 17.7334 4.84472 17.7334 5.21151C17.7335 5.57822 17.4801 5.82279 17.1001 5.82279Z" fill="black"/>
<path d="M21.5334 5.82279H20.9001C20.5202 5.82279 20.2668 5.57829 20.2668 5.21151C20.2668 4.84472 20.5202 4.60022 20.9001 4.60022H21.5334C21.9134 4.60022 22.1667 4.84472 22.1667 5.21151C22.1668 5.57822 21.9134 5.82279 21.5334 5.82279Z" fill="black"/>
<path d="M19.6334 8.87937H18.3667C17.9867 8.87937 17.7334 8.63487 17.7334 8.26809C17.7334 7.9013 17.9867 7.6568 18.3667 7.6568H19.6334C20.0134 7.6568 20.2667 7.9013 20.2667 8.26809C20.2667 8.6348 20.0134 8.87937 19.6334 8.87937Z" fill="black"/>
<path d="M10.7669 17.4378C10.6402 17.4378 10.5769 17.4378 10.4502 17.3767C10.1969 17.2544 10.0702 16.9488 10.1335 16.6431C11.1469 13.7699 10.9568 11.6303 9.56353 9.85747C9.43684 9.67407 9.37353 9.42957 9.50022 9.24618C9.62691 9.06279 9.81691 8.87939 10.0702 8.87939C12.1602 8.87939 15.3902 8.87939 15.7069 8.87939C15.8336 8.87939 15.9602 8.87939 16.0869 8.9405C16.4036 9.06279 16.5302 9.42957 16.4036 9.73518C16.3403 9.85747 16.3403 9.91857 16.2769 9.97968C15.7069 10.7744 15.2002 11.5691 14.6935 12.3638C13.7436 13.8921 12.7302 15.4815 11.5269 16.8875L11.2102 17.2543C11.1469 17.3767 10.9569 17.4378 10.7669 17.4378ZM11.2736 10.102C11.9069 11.3246 12.1603 12.6695 12.0336 14.1978C12.6036 13.4031 13.1103 12.5473 13.6169 11.6914C13.9336 11.1412 14.3136 10.6521 14.6303 10.102C14.187 10.102 13.6169 10.102 12.9203 10.102H11.2736Z" fill="black"/>
<path d="M27.2333 17.4378C27.0433 17.4378 26.8534 17.3767 26.7267 17.1933L26.41 16.8265C25.2066 15.4204 24.1933 13.831 23.2433 12.3028C22.7366 11.4469 22.1666 10.6522 21.5966 9.79636C21.47 9.61297 21.47 9.36847 21.5333 9.18507C21.66 9.00168 21.85 8.87939 22.1033 8.87939C22.4833 8.87939 27.2967 8.87939 27.8033 8.87939C28.0566 8.87939 28.2466 9.00168 28.3733 9.24618C28.5 9.42957 28.4366 9.67407 28.31 9.85747C26.9167 11.6303 26.7267 13.7699 27.74 16.6431C27.8667 16.9488 27.74 17.2544 27.4233 17.3767C27.4233 17.4378 27.36 17.4378 27.2333 17.4378ZM23.3067 10.102C23.6867 10.6521 24.0034 11.2023 24.3201 11.6914C24.8268 12.5473 25.3968 13.3419 25.9034 14.1978C25.7767 12.6695 26.0301 11.3246 26.6634 10.102C25.5234 10.102 24.2567 10.102 23.3067 10.102Z" fill="black"/>
<path d="M22.1668 10.1021H21.7868C21.5335 10.1021 21.2801 9.97976 21.2168 9.73526C21.0901 9.49076 21.1535 9.24619 21.3435 9.0628L21.4068 9.00169C21.5335 8.87941 21.7235 8.8183 21.8501 8.8183H22.1668C22.4201 8.8183 22.6101 8.94059 22.7368 9.12398C22.8635 9.30737 22.8635 9.55187 22.7368 9.73526C22.6101 9.97976 22.4201 10.1021 22.1668 10.1021Z" fill="black"/>
<path d="M27.2334 17.4379H10.7667C10.5134 17.4379 10.3234 17.3156 10.1967 17.0711C10.07 16.8266 10.1334 16.582 10.26 16.3986L10.5767 16.0318C11.7801 14.6869 12.6667 13.2197 13.6168 11.6303C14.1235 10.7744 14.6934 9.91858 15.2634 9.0628C15.3901 8.94051 15.5167 8.8183 15.7067 8.8183C15.8967 8.8183 16.0867 8.87941 16.2134 9.00169C16.7834 9.55187 18.0501 10.0409 18.9368 10.0409C19.8235 10.0409 21.0901 9.55187 21.6601 9.00169C21.7868 8.87941 21.9768 8.8183 22.1668 8.8183C22.3568 8.8183 22.5468 8.94058 22.6101 9.0628C23.1801 9.91866 23.6868 10.7745 24.1935 11.5692C25.0168 12.9141 25.8402 14.259 26.8535 15.4816L27.6134 16.3986C27.7401 16.582 27.8034 16.8265 27.6768 17.0711C27.5501 17.3156 27.4868 17.4379 27.2334 17.4379ZM12.0967 16.2152H25.9034C24.89 14.9315 24.0034 13.5865 23.2434 12.3028C22.8634 11.6915 22.4834 11.019 22.0401 10.4077C21.1534 10.9578 19.9501 11.3246 19.0001 11.3246C18.0501 11.3246 16.8467 10.9578 15.9601 10.4077C15.5167 11.0801 15.1368 11.7526 14.6934 12.3639C13.9334 13.6477 13.1101 14.9926 12.0967 16.2152Z" fill="black"/>
<path d="M15.8334 10.102H10.1334C9.94336 10.102 9.75337 9.97973 9.62667 9.85752C9.49998 9.67412 9.49998 9.49073 9.56337 9.30734L13.3634 0.748816C13.4267 0.443136 13.6801 0.320923 13.9334 0.320923H15.8334C16.2134 0.320923 16.4667 0.565423 16.4667 0.932209C16.4667 1.17671 16.2767 1.48239 16.0234 1.5435C15.9601 1.6046 15.8334 1.72689 15.8334 1.84918V2.39936C15.8334 3.01064 15.5167 3.622 14.9467 4.11107C14.82 4.23336 14.5667 4.66125 14.5667 5.21143C14.5667 5.94501 14.9467 6.37297 15.2 6.43408C15.58 6.49519 15.8333 6.80087 15.8967 7.16765C15.8967 7.71783 16.0867 8.26801 16.4034 8.75708C16.4667 8.87937 16.5301 9.00158 16.5301 9.06276V9.49066C16.4667 9.85744 16.2134 10.102 15.8334 10.102ZM11.0834 8.87937H15.0101C14.8201 8.45148 14.6301 8.02351 14.6301 7.53444C13.8701 7.22876 13.3634 6.31179 13.3634 5.21143C13.3634 4.35557 13.6801 3.622 14.1867 3.19411C14.3134 3.01071 14.5667 2.76621 14.5667 2.39943V1.84918C14.5667 1.72689 14.5667 1.66578 14.5667 1.5435H14.3134L11.0834 8.87937Z" fill="black"/>
<path d="M27.8668 10.102H22.1667C21.7868 10.102 21.5334 9.85753 21.5334 9.49074V9.06285C21.5334 8.94056 21.5968 8.81835 21.6601 8.75717C21.9768 8.2681 22.1668 7.71792 22.1668 7.16774C22.1668 6.80095 22.4835 6.49527 22.8635 6.43416C23.1168 6.43416 23.4968 5.94509 23.4968 5.21152C23.4968 4.66134 23.2435 4.23337 23.0535 4.11116C22.4835 3.62209 22.1668 3.0108 22.1668 2.39944V1.84919C22.1668 1.7269 22.0401 1.60469 21.9768 1.54351C21.7235 1.4824 21.5335 1.23783 21.5335 0.993328C21.5335 0.626541 21.7868 0.320862 22.1668 0.320862H24.0668C24.3201 0.320862 24.5735 0.443148 24.6368 0.687648L28.4368 9.2461C28.5001 9.42949 28.5001 9.67399 28.3735 9.79627C28.2468 9.97974 28.0568 10.102 27.8668 10.102ZM22.99 8.87938H26.9167L23.6234 1.54351H23.4334C23.4334 1.66579 23.4334 1.7269 23.4334 1.84919V2.39937C23.4334 2.76615 23.6867 3.07183 23.8767 3.19405C24.3834 3.62194 24.7 4.35559 24.7 5.21137C24.7 6.31173 24.1933 7.2287 23.4334 7.53438C23.37 8.02352 23.2434 8.45142 22.99 8.87938Z" fill="black"/>
<path d="M19.0001 29.6642H13.9333C13.5534 29.6642 13.3 29.4197 13.3 29.0529C13.3 28.6861 13.5534 28.4417 13.9333 28.4417H19.0001C19.3801 28.4417 19.6334 28.6861 19.6334 29.0529C19.6334 29.4196 19.3801 29.6642 19.0001 29.6642Z" fill="black"/>
<path d="M9.49998 29.6642H5.06665C4.68665 29.6642 4.43335 29.4197 4.43335 29.0529C4.43335 28.6861 4.68665 28.4417 5.06665 28.4417H9.49998C9.87998 28.4417 10.1333 28.6861 10.1333 29.0529C10.1333 29.4196 9.87998 29.6642 9.49998 29.6642Z" fill="black"/>
<path d="M32.9335 29.6642H25.3335C24.9535 29.6642 24.7002 29.4197 24.7002 29.0529C24.7002 28.6861 24.9535 28.4417 25.3335 28.4417H32.9335C33.3135 28.4417 33.5668 28.6861 33.5668 29.0529C33.5669 29.4196 33.3135 29.6642 32.9335 29.6642Z" fill="black"/>
<path d="M31.6666 27.2189H23.4333C23.0534 27.2189 22.8 26.9744 22.8 26.6076C22.8 26.2408 23.0534 25.9963 23.4333 25.9963H31.6667C32.0467 25.9963 32.3 26.2408 32.3 26.6076C32.3 26.9744 32.0466 27.2189 31.6666 27.2189Z" fill="black"/>
<path d="M20.9001 27.2189H18.3667C17.9867 27.2189 17.7334 26.9744 17.7334 26.6076C17.7334 26.2408 17.9867 25.9963 18.3667 25.9963H20.9001C21.28 25.9963 21.5334 26.2408 21.5334 26.6076C21.5334 26.9744 21.28 27.2189 20.9001 27.2189Z" fill="black"/>
<path d="M12.6668 27.2189H6.3335C5.9535 27.2189 5.7002 26.9744 5.7002 26.6076C5.7002 26.2408 5.9535 25.9963 6.3335 25.9963H12.6668C13.0468 25.9963 13.3001 26.2408 13.3001 26.6076C13.3002 26.9744 13.0468 27.2189 12.6668 27.2189Z" fill="black"/>
<path d="M30.4001 24.7736H22.8C22.4201 24.7736 22.1667 24.5291 22.1667 24.1623C22.1667 23.7955 22.4201 23.551 22.8 23.551H30.4C30.78 23.551 31.0333 23.7955 31.0333 24.1623C31.0334 24.5291 30.7801 24.7736 30.4001 24.7736Z" fill="black"/>
<path d="M18.3668 24.7736H12.0334C11.6535 24.7736 11.4001 24.5291 11.4001 24.1623C11.4001 23.7955 11.6535 23.551 12.0334 23.551H18.3668C18.7468 23.551 19.0001 23.7955 19.0001 24.1623C19.0001 24.5291 18.7468 24.7736 18.3668 24.7736Z" fill="black"/>
<path d="M8.86677 24.7736H7.6001C7.2201 24.7736 6.9668 24.5291 6.9668 24.1623C6.9668 23.7955 7.2201 23.551 7.6001 23.551H8.86677C9.24677 23.551 9.50007 23.7955 9.50007 24.1623C9.50015 24.5291 9.24685 24.7736 8.86677 24.7736Z" fill="black"/>
<path d="M29.1335 22.3283H21.5334C21.1534 22.3283 20.9001 22.0838 20.9001 21.7171C20.9001 21.3503 21.1534 21.1058 21.5334 21.1058H29.1334C29.5134 21.1058 29.7667 21.3503 29.7667 21.7171C29.7667 22.0838 29.5135 22.3283 29.1335 22.3283Z" fill="black"/>
<path d="M19 22.3283H14.5667C14.1867 22.3283 13.9333 22.0838 13.9333 21.7171C13.9333 21.3503 14.1867 21.1058 14.5667 21.1058H19C19.38 21.1058 19.6333 21.3503 19.6333 21.7171C19.6333 22.0838 19.38 22.3283 19 22.3283Z" fill="black"/>
<path d="M12.0334 22.3283H8.8667C8.4867 22.3283 8.2334 22.0838 8.2334 21.7171C8.2334 21.3503 8.4867 21.1058 8.8667 21.1058H12.0334C12.4133 21.1058 12.6667 21.3503 12.6667 21.7171C12.6667 22.0838 12.4133 22.3283 12.0334 22.3283Z" fill="black"/>
<path d="M27.8035 19.8831H25.9668C25.5868 19.8831 25.3335 19.6386 25.3335 19.2718C25.3335 18.905 25.5868 18.6605 25.9668 18.6605H27.8035C28.1835 18.6605 28.4368 18.905 28.4368 19.2718C28.4368 19.6386 28.1835 19.8831 27.8035 19.8831Z" fill="black"/>
<path d="M23.4333 19.8831H19C18.62 19.8831 18.3667 19.6386 18.3667 19.2718C18.3667 18.905 18.62 18.6605 19 18.6605H23.4333C23.8133 18.6605 24.0666 18.905 24.0666 19.2718C24.0666 19.6386 23.8133 19.8831 23.4333 19.8831Z" fill="black"/>
<path d="M14.5666 19.8831H10.1333C9.75331 19.8831 9.5 19.6386 9.5 19.2718C9.5 18.905 9.75331 18.6605 10.1333 18.6605H14.5666C14.9466 18.6605 15.1999 18.905 15.1999 19.2718C15.1999 19.6386 14.9467 19.8831 14.5666 19.8831Z" fill="black"/>
<path d="M3.80005 37C3.42005 37 3.16675 36.7555 3.16675 36.3887V33.9434C3.16675 33.5767 3.42005 33.3322 3.80005 33.3322C4.18004 33.3322 4.43335 33.5767 4.43335 33.9434V36.3887C4.43335 36.7555 4.18004 37 3.80005 37Z" fill="black"/>
<path d="M6.3335 37C5.9535 37 5.7002 36.7555 5.7002 36.3887V33.9434C5.7002 33.5767 5.9535 33.3322 6.3335 33.3322C6.71349 33.3322 6.9668 33.5767 6.9668 33.9434V36.3887C6.9668 36.7555 6.71349 37 6.3335 37Z" fill="black"/>
<path d="M8.8667 37C8.4867 37 8.2334 36.7555 8.2334 36.3887V33.9434C8.2334 33.5767 8.4867 33.3322 8.8667 33.3322C9.24669 33.3322 9.5 33.5767 9.5 33.9434V36.3887C9.50007 36.7555 9.24677 37 8.8667 37Z" fill="black"/>
<path d="M29.1333 37C28.7533 37 28.5 36.7555 28.5 36.3887V33.9434C28.5 33.5767 28.7533 33.3322 29.1333 33.3322C29.5133 33.3322 29.7666 33.5767 29.7666 33.9434V36.3887C29.7666 36.7555 29.5133 37 29.1333 37Z" fill="black"/>
<path d="M31.6667 37C31.2868 37 31.0334 36.7555 31.0334 36.3887V33.9434C31.0334 33.5767 31.2868 33.3322 31.6667 33.3322C32.0467 33.3322 32.3 33.5767 32.3 33.9434V36.3887C32.3001 36.7555 32.0467 37 31.6667 37Z" fill="black"/>
<path d="M34.2002 37C33.8202 37 33.5669 36.7555 33.5669 36.3887V33.9434C33.5669 33.5767 33.8202 33.3322 34.2002 33.3322C34.5802 33.3322 34.8335 33.5767 34.8335 33.9434V36.3887C34.8336 36.7555 34.5802 37 34.2002 37Z" fill="black"/>
<path d="M17.7334 32.1095H13.3C12.9201 32.1095 12.6667 31.865 12.6667 31.4982C12.6667 31.1314 12.9201 30.8869 13.3 30.8869H17.7334C18.1134 30.8869 18.3667 31.1314 18.3667 31.4982C18.3667 31.865 18.1134 32.1095 17.7334 32.1095Z" fill="black"/>
<path d="M24.0668 32.1095H21.5334C21.1534 32.1095 20.9001 31.865 20.9001 31.4982C20.9001 31.1314 21.1534 30.8869 21.5334 30.8869H24.0668C24.4468 30.8869 24.7001 31.1314 24.7001 31.4982C24.7001 31.865 24.4468 32.1095 24.0668 32.1095Z" fill="black"/>
<path d="M22.8 34.5547H20.2666C19.8866 34.5547 19.6333 34.3102 19.6333 33.9434C19.6333 33.5767 19.8866 33.3322 20.2666 33.3322H22.8C23.18 33.3322 23.4333 33.5767 23.4333 33.9434C23.4333 34.3102 23.18 34.5547 22.8 34.5547Z" fill="black"/>
<path d="M17.1002 34.5547H15.2002C14.8202 34.5547 14.5669 34.3102 14.5669 33.9434C14.5669 33.5767 14.8202 33.3322 15.2002 33.3322H17.1002C17.4802 33.3322 17.7335 33.5767 17.7335 33.9434C17.7335 34.3102 17.4802 34.5547 17.1002 34.5547Z" fill="black"/>
</svg>
