<svg width="38" height="40" viewBox="0 0 38 40" fill="none" xmlns="http://www.w3.org/2000/svg">
<path d="M22.8333 18.6866C22.6656 18.4211 22.8126 18.1225 23.1958 17.9503C24.9176 17.1763 26.5049 16.1479 27.786 14.976C29.7756 13.1564 30.8715 11.1165 30.8715 9.23242C30.8715 7.19534 29.7292 5.26072 27.6551 3.78485C25.4272 2.19947 22.2724 1.29022 18.9999 1.29022C15.7274 1.29022 12.5728 2.19947 10.3447 3.78485C8.27054 5.26072 7.12822 7.19534 7.12822 9.2325C7.12822 11.1167 8.22394 13.1565 10.2135 14.9762C11.4948 16.148 13.0821 17.1765 14.8038 17.9504C15.1868 18.1226 15.3338 18.4211 15.1662 18.6867C14.9986 18.9522 14.5548 19.1222 14.074 19.1067L2.19824 18.7174V20.6815L15.8067 20.2353C16.1292 20.2245 16.4414 20.2974 16.6635 20.4341C16.8857 20.5708 16.9946 20.7578 16.9615 20.9458L13.9232 38.181C14.885 38.3863 16.7556 38.7097 18.9999 38.7097C21.2437 38.7097 23.114 38.3865 24.0766 38.181L21.0383 20.9459C21.0051 20.7579 21.1141 20.5709 21.3362 20.4342C21.5585 20.2974 21.8721 20.2247 22.193 20.2353L35.8016 20.6816V18.7175L23.9257 19.1068C23.4442 19.1228 23.0008 18.9521 22.8333 18.6866ZM19.4909 18.223C19.3363 18.2683 19.1682 18.291 18.9999 18.291C18.8317 18.291 18.6636 18.2684 18.5091 18.223C14.4561 17.0358 10.0816 13.6206 10.0816 10.1734C10.0816 6.74984 14.0824 3.96454 19.0001 3.96454C23.1725 3.96454 26.7444 5.93607 27.6866 8.75895C27.8033 9.10863 27.4149 9.44764 26.8191 9.51611C26.8007 9.51826 26.7823 9.51921 26.764 9.52076C26.7992 9.73495 26.8193 9.95242 26.8193 10.1733C26.8193 10.3452 26.8052 10.5177 26.7815 10.6904C26.7985 10.6917 26.8155 10.6923 26.8326 10.6941C27.4306 10.7553 27.831 11.0895 27.7266 11.4405C26.9018 14.2144 23.4382 17.0667 19.4909 18.223Z" fill="#FECD57"/>
<path d="M37.6562 17.5664C37.4366 17.4445 37.1414 17.3807 36.8396 17.391L26.9088 17.7166C27.9074 17.1008 28.8286 16.412 29.6365 15.6729C31.8506 13.6479 33.0702 11.3607 33.0702 9.23243C33.0702 6.89652 31.7495 4.67028 29.3514 2.96378C26.7041 1.08034 22.9313 0 19.0001 0C15.069 0 11.2961 1.08026 8.64905 2.96387C6.25082 4.67028 4.92998 6.89652 4.92998 9.23252C4.92998 11.3608 6.1494 13.648 8.36354 15.673C9.17155 16.412 10.0927 17.1009 11.0912 17.7166L1.16064 17.391C0.85784 17.3806 0.563393 17.4446 0.343986 17.5664C0.124433 17.6883 0 17.8578 0 18.0351V21.3637C0 21.5411 0.124433 21.7106 0.343986 21.8324C0.563686 21.9543 0.859159 22.0178 1.16064 22.0078L14.6422 21.5658L11.6517 38.5294C11.6041 38.7991 11.8491 39.0576 12.2648 39.1762C12.3828 39.2098 15.1986 40 19 40C22.8014 40 25.6171 39.2097 25.7351 39.1762C26.1509 39.0576 26.3959 38.7992 26.3483 38.5294L23.3578 21.5658L36.8395 22.0078C37.1416 22.0176 37.4365 21.9542 37.656 21.8324C37.8756 21.7105 38 21.541 38 21.3637V18.0351C38.0001 17.8578 37.8757 17.6882 37.6562 17.5664ZM35.8017 20.6815L22.193 20.2352C21.8724 20.2245 21.5586 20.2973 21.3362 20.4341C21.114 20.5708 21.0051 20.7578 21.0384 20.9457L24.0767 38.1808C23.1142 38.3865 21.2439 38.7097 19.0001 38.7097C16.7558 38.7097 14.8852 38.3863 13.9235 38.181L16.9617 20.9458C16.9949 20.7578 16.886 20.5708 16.6638 20.4342C16.4416 20.2975 16.1294 20.2245 15.807 20.2353L2.19846 20.6815V18.7174L14.0743 19.1068C14.555 19.1222 14.9988 18.9523 15.1665 18.6867C15.334 18.4212 15.187 18.1226 14.804 17.9505C13.0823 17.1765 11.495 16.148 10.2138 14.9762C8.22416 13.1566 7.12844 11.1167 7.12844 9.23252C7.12844 7.19544 8.27062 5.26082 10.3448 3.78495C12.5729 2.19957 15.7277 1.29032 19 1.29032C22.2725 1.29032 25.4273 2.19957 27.6552 3.78495C29.7292 5.26082 30.8716 7.19544 30.8716 9.23252C30.8716 11.1166 29.7757 13.1565 27.7861 14.9761C26.505 16.148 24.9177 17.1764 23.1958 17.9504C22.8129 18.1225 22.6659 18.4212 22.8334 18.6867C23.0009 18.9522 23.4443 19.1229 23.9254 19.1068L35.8014 18.7174V20.6815H35.8017Z" fill="black"/>
<path d="M27.7266 11.4407C27.8309 11.0896 27.4305 10.7555 26.8325 10.6943C26.8154 10.6925 26.7985 10.6919 26.7814 10.6906C26.2016 10.6471 25.6621 10.8779 25.5606 11.2189C24.893 13.4646 22.1219 15.8474 19.0011 16.9126C15.668 15.767 12.2802 12.9007 12.2802 10.1735C12.2802 7.46141 15.2947 5.25496 19.0001 5.25496C22.107 5.25496 24.7919 6.79793 25.5291 9.00713C25.6423 9.34597 26.1882 9.56971 26.7639 9.52094C26.7822 9.51939 26.8006 9.51836 26.819 9.51629C27.4148 9.44782 27.8032 9.10881 27.6865 8.75913C26.7443 5.93625 23.1724 3.96472 19 3.96472C14.0823 3.96472 10.0815 6.75001 10.0815 10.1736C10.0815 13.6208 14.456 17.0359 18.509 18.2232C18.6635 18.2685 18.8317 18.2912 18.9998 18.2912C19.1679 18.2912 19.3362 18.2685 19.4908 18.2232C23.4384 17.0667 26.902 14.2144 27.7266 11.4407Z" fill="black"/>
</svg>
