<svg width="84" height="62" viewBox="0 0 84 62" fill="none" xmlns="http://www.w3.org/2000/svg">
<path d="M70.7622 5.54797C70.7392 5.50468 70.7011 5.47075 70.6547 5.45227C65.2936 3.06087 59.6362 1.35562 53.8239 0.379183C53.7711 0.369638 53.7165 0.376524 53.668 0.39886C53.6194 0.421196 53.5793 0.457846 53.5534 0.503597C52.7831 1.86298 52.0837 3.25928 51.4581 4.68719C45.1928 3.76254 38.8198 3.76254 32.5545 4.68719C31.9247 3.25566 31.2142 1.859 30.4261 0.503597C30.3991 0.45884 30.3588 0.423034 30.3106 0.400843C30.2623 0.378652 30.2083 0.371104 30.1556 0.379183C24.3427 1.35357 18.6848 3.05895 13.3244 5.4524C13.2785 5.47132 13.2398 5.50361 13.2136 5.54483C2.49392 21.1086 -0.442613 36.2897 0.997949 51.2828C1.002 51.3196 1.01361 51.3552 1.03209 51.3875C1.05058 51.4198 1.07555 51.4481 1.10553 51.4708C7.34751 55.9642 14.3292 59.394 21.7528 61.6139C21.8051 61.6291 21.8609 61.6284 21.9128 61.6119C21.9646 61.5954 22.01 61.5638 22.0429 61.5214C23.6373 59.4123 25.0501 57.1788 26.2669 54.8438C26.2836 54.8118 26.2931 54.7767 26.2949 54.7408C26.2966 54.7049 26.2905 54.669 26.277 54.6356C26.2634 54.6022 26.2428 54.5719 26.2163 54.5468C26.1899 54.5217 26.1583 54.5024 26.1236 54.49C23.8957 53.6613 21.7389 52.6622 19.6734 51.5023C19.6359 51.4808 19.6043 51.4507 19.5816 51.4146C19.5589 51.3786 19.5457 51.3376 19.5431 51.2953C19.5405 51.2531 19.5487 51.2109 19.5669 51.1724C19.5851 51.134 19.6127 51.1005 19.6474 51.0749C20.082 50.7593 20.5091 50.4339 20.9283 50.0991C20.9651 50.0697 21.0096 50.0508 21.0568 50.0446C21.104 50.0385 21.152 50.0452 21.1955 50.0641C34.7277 56.0684 49.3782 56.0684 62.7502 50.0641C62.7938 50.044 62.8423 50.0363 62.8902 50.0419C62.9381 50.0476 62.9834 50.0663 63.0207 50.096C63.4404 50.4325 63.8686 50.7589 64.3049 51.0749C64.3398 51.1002 64.3677 51.1335 64.3861 51.1718C64.4046 51.2101 64.4131 51.2523 64.4108 51.2945C64.4086 51.3367 64.3957 51.3778 64.3732 51.414C64.3508 51.4503 64.3195 51.4806 64.2822 51.5023C62.2213 52.672 60.0625 53.6704 57.8289 54.4869C57.7942 54.4997 57.7627 54.5195 57.7364 54.545C57.7101 54.5705 57.6897 54.6011 57.6764 54.6348C57.6631 54.6684 57.6573 54.7045 57.6594 54.7405C57.6614 54.7765 57.6712 54.8117 57.6882 54.8438C58.9254 57.1658 60.3361 59.3965 61.909 61.5177C61.9409 61.5613 61.9861 61.5939 62.0381 61.6111C62.0902 61.6283 62.1465 61.6291 62.1991 61.6135C69.6359 59.4011 76.6299 55.971 82.8797 51.4708C82.9101 51.4492 82.9354 51.4216 82.954 51.3897C82.9725 51.3578 82.9839 51.3225 82.9873 51.286C84.7119 33.9524 80.0999 18.8957 70.7622 5.54797ZM28.2878 42.1536C24.2136 42.1536 20.8566 38.5187 20.8566 34.0545C20.8566 29.5904 24.1485 25.9552 28.2878 25.9552C32.4594 25.9552 35.7839 29.622 35.7188 34.0542C35.7188 38.5187 32.4268 42.1536 28.2878 42.1536ZM55.7631 42.1536C51.689 42.1536 48.332 38.5187 48.332 34.0545C48.332 29.5904 51.6239 25.9552 55.7631 25.9552C59.935 25.9552 63.2594 29.622 63.1943 34.0542C63.1943 38.5187 59.935 42.1536 55.7631 42.1536Z" fill="white"/>
</svg>
