<svg width="36" height="40" viewBox="0 0 36 40" fill="none" xmlns="http://www.w3.org/2000/svg">
<path d="M2.76758 22.2193C2.98632 20.1539 3.32843 18.8624 7.74649 16.4039C12.1623 13.9467 18.7995 13.6903 19.5468 11.5138C19.8242 10.7045 21.1362 3.73791 23.2337 2.92851C25.3334 2.11927 29.4739 2.51709 29.4739 2.51709C29.4739 2.51709 32.7845 3.5779 33.5599 3.95393C34.3335 4.32996 35.9997 5.83501 35.9997 5.83501C35.9997 5.83501 35.129 8.11531 34.1835 8.23C33.2378 8.34352 30.4963 7.92234 30.4963 7.92234C30.4963 7.92234 29.1337 8.19578 29.4173 9.35785C29.7007 10.5212 31.6871 12.6074 31.5169 14.6253C31.3467 16.6442 28.3968 19.414 28.3968 19.414L28.7936 31.0778L31.1768 31.4196C31.1768 31.4196 31.7154 31.8981 31.6304 32.6855C31.5454 33.4716 30.0694 33.7341 30.0694 33.7341H25.4752C25.4752 33.7341 22.3187 22.4878 22.1343 22.4853C21.9501 22.4829 16.7101 30.9753 16.7101 30.9753L19.0345 31.1804C19.0345 31.1804 19.3181 31.6541 19.3667 32.4328C19.3909 32.8137 18.8644 34.0515 17.5322 34.0466L2.76978 34.1614L2.76758 22.2193Z" fill="#FECD57"/>
<path d="M33.56 3.95397C32.7845 3.57794 29.4739 2.51713 29.4739 2.51713C29.4739 2.51713 28.077 2.3829 26.4937 2.42931C27.425 2.45369 28.0911 2.51713 28.0911 2.51713C28.0911 2.51713 31.4015 3.57794 32.1751 3.95397C32.9505 4.33 34.6148 5.83504 34.6148 5.83504C34.6148 5.83504 33.809 7.95175 32.904 8.20809C33.4142 8.2484 33.8881 8.26543 34.1837 8.23004C35.1292 8.11527 35.9999 5.83504 35.9999 5.83504C35.9999 5.83504 34.3335 4.33 33.56 3.95397Z" fill="#646C77"/>
<path d="M28.7937 31.078L28.3969 19.4142C28.3969 19.4142 31.347 16.6444 31.517 14.6254C31.6871 12.6075 29.7007 10.5214 29.4174 9.35799C29.2371 8.61586 30.1179 8.09952 30.4965 7.92248C29.9274 7.85045 29.0408 8.03115 29.0408 8.03115C29.0408 8.03115 27.7511 8.19593 28.0344 9.35799C28.318 10.5214 30.3043 12.6075 30.1341 14.6254C29.964 16.6444 27.0139 19.4142 27.0139 19.4142L27.4108 31.078L29.7941 31.4198C29.7941 31.4198 30.3325 31.8982 30.2477 32.6856C30.1625 33.4718 28.6865 33.7342 28.6865 33.7342H30.0695C30.0695 33.7342 31.5455 33.4718 31.6305 32.6856C31.7155 31.8982 31.1769 31.4198 31.1769 31.4198L28.7937 31.078Z" fill="#646C77"/>
<path d="M23.5131 0.276052C22.353 2.34877 23.5171 4.34587 23.5171 4.34587C25.0114 2.06806 28.8259 2.75644 28.8259 2.75644C28.8259 2.75644 24.2502 -1.03626 23.5131 0.276052Z" fill="#646C77"/>
<path d="M29.3973 9.25911C27.7612 9.16754 23.5092 8.87698 20.4134 8.1897C19.9578 9.77295 19.6623 11.1767 19.5469 11.5137C19.4901 11.6797 19.3969 11.8347 19.2754 11.9812C23.1831 12.6355 29.0408 13.0823 31.3408 13.2422C30.8671 11.7017 29.636 10.2552 29.4174 9.35786C29.4093 9.3238 29.4034 9.2909 29.3973 9.25911Z" fill="#646C77"/>
<path d="M28 9.16882C28.004 9.20172 28.0263 9.32375 28.0345 9.35797C28.2471 10.2357 29.4296 11.6371 29.9236 13.1397C30.4783 13.1812 30.9581 13.2154 31.3409 13.2423C30.8671 11.7018 29.6361 10.2553 29.4174 9.35797C29.4093 9.32375 29.4033 9.29094 29.3972 9.25914C27.761 9.16765 28 9.16882 28 9.16882Z" fill="#424953"/>
<path d="M30.4339 33.3277H2.76775C1.24508 33.3277 0 34.0783 0 34.9963V38.3325C0 39.2493 1.24508 40 2.76775 40H30.4339C31.9565 40 33.2015 39.2494 33.2015 38.3325V34.9963C33.2017 34.0783 31.9565 33.3277 30.4339 33.3277Z" fill="#646C77"/>
<path d="M30.434 33.3277H29.051C30.5716 33.3277 31.817 34.0783 31.817 34.9963V38.3325C31.817 39.2493 30.5717 40 29.051 40H30.434C31.9565 40 33.2016 39.2494 33.2016 38.3325V34.9963C33.2017 34.0783 31.9565 33.3277 30.434 33.3277Z" fill="#798089"/>
</svg>
