<svg width="60" height="60" viewBox="0 0 60 60" fill="none" xmlns="http://www.w3.org/2000/svg">
<g clip-path="url(#clip0_104_140)">
<path d="M44.3272 9.31263C43.8293 9.00737 43.183 9.16211 42.8788 9.65684C42.5735 10.1526 42.7283 10.8 43.223 11.1053C50.762 15.7474 55.263 23.7937 55.263 32.6316C55.263 34.8074 54.9777 36.9863 54.4156 39.1074C54.2672 39.6684 54.602 40.2453 55.1641 40.3947C55.2535 40.4179 55.3451 40.4295 55.4335 40.4295C55.8998 40.4295 56.3262 40.1179 56.4504 39.6463C57.0598 37.3495 57.3683 34.9895 57.3683 32.6316C57.3683 23.0579 52.4935 14.34 44.3272 9.31263Z" fill="#424A60"/>
<path d="M39.6536 55.9811C36.5852 57.2506 33.3378 57.8948 29.9999 57.8948C22.9178 57.8948 16.1168 54.8906 11.3389 49.6506C10.9473 49.2211 10.2831 49.1906 9.85152 49.5822C9.42205 49.9738 9.39152 50.6401 9.7831 51.0695C14.9589 56.7443 22.3273 60.0001 29.9999 60.0001C33.6157 60.0001 37.1347 59.3022 40.4589 57.9253C40.9957 57.7032 41.2515 57.0874 41.0294 56.5495C40.8073 56.0138 40.1905 55.759 39.6536 55.9811Z" fill="#424A60"/>
<path d="M23.983 8.09161C24.5482 7.95266 24.8935 7.38319 24.7556 6.81898C24.6188 6.25477 24.0461 5.91161 23.484 6.04634C11.8967 8.87792 3.54824 18.7769 2.70824 30.68C2.66719 31.26 3.10403 31.7632 3.68403 31.8032C3.70929 31.8053 3.73455 31.8063 3.75876 31.8063C4.30719 31.8063 4.76824 31.3832 4.80824 30.8274C5.58403 19.8421 13.2893 10.7042 23.983 8.09161Z" fill="#424A60"/>
<path d="M29.9999 12.6316C33.488 12.6316 36.3157 9.8039 36.3157 6.31579C36.3157 2.82768 33.488 0 29.9999 0C26.5118 0 23.6841 2.82768 23.6841 6.31579C23.6841 9.8039 26.5118 12.6316 29.9999 12.6316Z" fill="#EBBA16"/>
<path d="M6.84216 51.579C10.3303 51.579 13.1579 48.7513 13.1579 45.2632C13.1579 41.7751 10.3303 38.9474 6.84216 38.9474C3.35404 38.9474 0.526367 41.7751 0.526367 45.2632C0.526367 48.7513 3.35404 51.579 6.84216 51.579Z" fill="#7383BF"/>
<path d="M53.1581 51.579C56.6462 51.579 59.4739 48.7513 59.4739 45.2632C59.4739 41.7751 56.6462 38.9474 53.1581 38.9474C49.67 38.9474 46.8423 41.7751 46.8423 45.2632C46.8423 48.7513 49.67 51.579 53.1581 51.579Z" fill="#43B05C"/>
</g>
<defs>
<clipPath id="clip0_104_140">
<rect width="60" height="60" fill="white"/>
</clipPath>
</defs>
</svg>
