<svg width="140" height="123" viewBox="0 0 140 123" fill="none" xmlns="http://www.w3.org/2000/svg">
<path d="M83.6679 98.7181C83.648 98.6919 83.6277 98.6664 83.6072 98.6407L73.8094 86.4416C72.9355 85.3539 71.5147 84.7069 69.9996 84.7069C69.9933 84.7069 69.9867 84.7069 69.9807 84.7069C68.4588 84.7124 67.0358 85.37 66.1682 86.4688L56.652 98.5218C53.0405 102.889 52.4523 108.632 55.1202 113.525C57.7775 118.398 62.9991 121.452 69.091 121.693C69.3644 121.704 69.6398 121.709 69.9162 121.709C70.1929 121.709 70.468 121.704 70.7447 121.693C76.7551 121.455 81.9753 118.469 84.7097 113.706C87.466 108.905 87.0665 103.162 83.6679 98.7181Z" fill="#F79D1E"/>
<path d="M70.0001 84.7069C69.9938 84.7069 69.9872 84.7069 69.9812 84.7069C68.4593 84.7124 67.0363 85.37 66.1687 86.4688L56.6525 98.5218C53.0409 102.889 52.4528 108.632 55.1207 113.525C57.778 118.399 62.9995 121.452 69.0915 121.693C69.3649 121.704 69.6402 121.709 69.9167 121.709C70.194 121.709 70.0001 84.7069 70.0001 84.7069Z" fill="#FBB03B"/>
<path d="M70.0836 119.202C67.5086 119.202 65.4209 117.368 65.4209 115.105V109.862C65.4209 107.6 67.5086 105.766 70.0836 105.766C72.6585 105.766 74.7462 107.6 74.7462 109.862V115.105C74.7462 117.368 72.6585 119.202 70.0836 119.202Z" fill="#BC2A46"/>
<path d="M70.0836 119.202C67.5086 119.202 65.4209 117.368 65.4209 115.105V109.862C65.4209 107.6 67.5086 105.766 70.0836 105.766C70.0836 106.008 70.0836 119.202 70.0836 119.202Z" fill="#D62D46"/>
<path d="M84.6784 123H55.3224C53.7909 123 52.357 122.339 51.4861 121.232L29.3108 93.0356C25.8026 88.5749 22.8265 83.7729 20.4646 78.7633C19.4791 76.6732 20.6087 74.2764 22.9881 73.4106C25.3676 72.5451 28.0948 73.538 29.0806 75.6278C31.1907 80.1033 33.8493 84.3934 36.9835 88.3784L57.7683 114.807H82.2325L103.017 88.3784C105.987 84.6019 108.534 80.5468 110.586 76.3264C111.597 74.2457 114.337 73.2792 116.706 74.1686C119.074 75.0572 120.173 77.4643 119.162 79.5452C116.865 84.2695 114.014 88.8087 110.69 93.0361L88.5144 121.232C87.6438 122.339 86.2099 123 84.6784 123Z" fill="#CFCDD6"/>
<path d="M70.0002 123H55.3224C53.7909 123 52.357 122.339 51.4861 121.232L29.3108 93.0356C25.8026 88.5749 22.8265 83.7729 20.4646 78.7633C19.4791 76.6732 20.6087 74.2764 22.9881 73.4106C25.3676 72.5451 28.0948 73.538 29.0806 75.6278C31.1907 80.1033 33.8493 84.3934 36.9835 88.3784L57.7683 114.807H70.0005V123H70.0002Z" fill="#DEE1E7"/>
<path d="M119.831 78.1579C124.018 69.0724 126.19 59.3362 126.19 49.3672C126.19 22.146 100.984 0 69.9999 0C39.0161 0 13.8096 22.146 13.8096 49.3674C13.8096 59.3367 15.9815 69.0727 20.1692 78.1579H119.831Z" fill="#39B7B6"/>
<path d="M69.9969 78.1579L69.9999 0C39.0164 0 13.8096 22.146 13.8096 49.3674C13.8096 59.3367 15.9815 69.0727 20.1692 78.1579H69.9969Z" fill="#66CBC4"/>
</svg>
