<svg width="60" height="60" viewBox="0 0 60 60" fill="none" xmlns="http://www.w3.org/2000/svg">
<path d="M53.8351 30.0001C53.8357 29.0473 53.7795 28.0954 53.6666 27.1494C53.6252 26.4308 53.8587 25.7232 54.3201 25.1704C54.7844 24.6141 55.4441 24.257 56.1635 24.1723C56.8829 24.0876 57.6074 24.2819 58.1881 24.7152C58.7654 25.146 59.1569 25.7806 59.2831 26.4897C59.4236 27.6547 59.4961 28.8269 59.5 30.0003C59.5014 34.0849 58.6524 38.1251 57.007 41.8634C55.3615 45.6019 52.9557 48.9567 49.9427 51.7139L49.9227 51.7323L49.9048 51.7527C49.7916 51.8814 49.6663 51.9989 49.5306 52.1035L49.5175 52.1137L49.5051 52.1246C44.1215 56.8773 37.1882 59.5 30.0078 59.5C22.8274 59.5 15.8941 56.8773 10.5105 52.1246L10.4981 52.1137L10.485 52.1035C10.3493 51.9989 10.224 51.8814 10.1108 51.7527L10.0929 51.7323L10.0729 51.714C5.68909 47.7013 2.62073 42.4565 1.27059 36.6681C-0.0795411 30.8796 0.351661 24.8182 2.50759 19.2793C4.66352 13.7404 8.44341 8.98303 13.3511 5.63163C18.2587 2.28023 24.0648 0.491431 30.0071 0.500031H30.0078C30.9049 0.500031 31.8333 0.554455 32.7396 0.636866L32.7409 0.636984C33.4889 0.702969 34.18 1.06332 34.6625 1.63888C35.1445 2.21393 35.3788 2.95676 35.3139 3.70437C35.2415 4.45492 34.8758 5.14653 34.2963 5.62882C33.7176 6.11045 32.9725 6.34439 32.2226 6.28008C31.4867 6.1999 30.7467 6.16202 30.0064 6.16663C25.5353 6.16387 21.1537 7.42099 17.3639 9.79395C13.5735 12.1672 10.5283 15.5606 8.57718 19.5852C6.62608 23.6098 5.84803 28.1028 6.33217 32.5493C6.81631 36.9958 8.54307 41.2159 11.3146 44.7261L11.7076 45.2238L12.0999 44.7255C14.2098 42.045 16.8935 39.8716 19.9536 38.3649L20.5757 38.0585L20.0885 37.565C18.1564 35.608 16.846 33.1231 16.3223 30.4229C15.7986 27.7228 16.0848 24.9281 17.1451 22.3903C18.2054 19.8525 19.9923 17.6851 22.281 16.1606C24.5698 14.6361 27.2581 13.8228 30.0078 13.8228C32.7575 13.8228 35.4458 14.6361 37.7345 16.1606C40.0233 17.6851 41.8102 19.8525 42.8705 22.3903C43.9307 24.9281 44.217 27.7228 43.6933 30.4229C43.1695 33.1231 41.8592 35.608 39.9271 37.565L39.4399 38.0585L40.062 38.3649C43.1221 39.8716 45.8057 42.045 47.9157 44.7255L48.3068 45.2223L48.7001 44.7272C52.0263 40.5395 53.8363 35.3484 53.8351 30.0001ZM53.8351 30.0001L53.3351 29.9997M53.8351 30.0001C53.8351 29.9999 53.8351 29.9997 53.8351 29.9996L53.3351 29.9997M53.3351 29.9997C53.3363 35.0635 51.679 39.9832 48.6243 44.0095L59.7778 26.4164C59.6321 25.5764 59.1702 24.8242 58.4871 24.3145C57.804 23.8047 56.9515 23.5761 56.105 23.6757C55.2586 23.7753 54.4824 24.1956 53.9362 24.85C53.39 25.5044 53.1153 26.3433 53.1684 27.1942C53.2801 28.1252 53.3357 29.062 53.3351 29.9997ZM30.0078 53.8328C34.9272 53.8375 39.726 52.3102 43.7381 49.4628L44.1511 49.1697L43.8528 48.7605C42.2626 46.5791 40.1797 44.8043 37.7737 43.5807C35.3678 42.3571 32.7069 41.7193 30.0078 41.7193C27.3087 41.7193 24.6478 42.3571 22.2418 43.5807C19.8359 44.8043 17.753 46.5791 16.1628 48.7605L15.8645 49.1697L16.2775 49.4628C20.2896 52.3102 25.0884 53.8375 30.0078 53.8328ZM30.0078 53.8328C30.008 53.8328 30.0081 53.8328 30.0083 53.8328L30.0078 53.3328L30.0073 53.8328C30.0075 53.8328 30.0076 53.8328 30.0078 53.8328ZM43.4487 49.0551L43.0447 49.3496C43.0424 49.3464 43.0401 49.3433 43.0378 49.3401C43.1757 49.2466 43.3127 49.1516 43.4487 49.0551ZM43.4487 49.0551L43.1594 48.6473C43.1556 48.65 43.1518 48.6527 43.148 48.6553C43.2502 48.7869 43.3504 48.9202 43.4487 49.0551ZM16.5668 49.0551L16.8562 48.6473C16.86 48.65 16.8638 48.6527 16.8675 48.6553C16.7654 48.7869 16.6651 48.9202 16.5668 49.0551ZM16.5668 49.0551L16.9709 49.3496C16.9732 49.3464 16.9755 49.3433 16.9778 49.3401C16.8399 49.2466 16.7029 49.1516 16.5668 49.0551ZM42.0348 7.4077L42.0357 7.40485C42.2682 6.6915 42.7739 6.09953 43.4421 5.75873C44.1096 5.41826 44.8847 5.35624 45.5978 5.58617C45.5985 5.5864 45.5992 5.58662 45.5999 5.58684L46.512 5.89097L47.1701 6.11041V5.41664V4.44443C47.1701 3.69295 47.4686 2.97228 47.9998 2.44094C48.531 1.90961 49.2514 1.61113 50.0026 1.61113C50.7538 1.61113 51.4742 1.90961 52.0054 2.44094C52.5366 2.97228 52.8351 3.69295 52.8351 4.44443V5.41664V6.11041L53.4932 5.89097L54.3955 5.59013C55.0934 5.40468 55.8359 5.49281 56.4712 5.83686C57.1106 6.18309 57.5924 6.76199 57.8168 7.45375C58.0413 8.14551 57.9912 8.89713 57.677 9.55297C57.3642 10.2058 56.8135 10.714 56.1381 10.9734L55.2319 11.2756L54.574 11.4949L54.99 12.0499L55.5688 12.8217C55.5695 12.8226 55.5702 12.8236 55.5709 12.8245C55.7893 13.1258 55.9463 13.4672 56.0328 13.8291C56.1196 14.1922 56.1338 14.5689 56.0746 14.9376C56.0153 15.3062 55.8839 15.6595 55.6877 15.9771C55.4915 16.2947 55.2345 16.5704 54.9315 16.7884L54.9294 16.7899C54.6275 17.0095 54.2852 17.1672 53.9222 17.254C53.5593 17.3408 53.1827 17.355 52.8142 17.2958C52.4457 17.2365 52.0926 17.105 51.775 16.9088C51.4578 16.7128 51.1824 16.4561 50.9646 16.1533C50.9644 16.153 50.9642 16.1527 50.964 16.1525L50.4095 15.376L50.0026 14.8062L49.5957 15.376L49.042 16.1514C49.0416 16.1518 49.0413 16.1523 49.041 16.1528C48.5994 16.7628 47.9338 17.1726 47.1904 17.2921C46.4464 17.4117 45.6854 17.2308 45.0747 16.7892C44.4641 16.3475 44.0538 15.6813 43.9342 14.937C43.8149 14.1941 43.9949 13.4343 44.4346 12.824L45.0151 12.0499L45.4312 11.4949L44.7733 11.2756L43.8568 10.97L43.8568 10.97L43.8496 10.9677C43.4953 10.8555 43.1667 10.6739 42.8831 10.4335C42.5995 10.1932 42.3665 9.8988 42.1976 9.56755C42.0288 9.2363 41.9274 8.87477 41.8994 8.50398C41.8715 8.13319 41.9175 7.76054 42.0348 7.4077ZM21.732 27.7775L21.732 27.7793C21.7398 29.9718 22.614 32.0722 24.164 33.6226C25.714 35.173 27.814 36.0474 30.006 36.0552H30.0078C31.6446 36.0552 33.2447 35.5697 34.6056 34.6601C35.9666 33.7505 37.0273 32.4577 37.6536 30.9452C38.28 29.4327 38.4439 27.7683 38.1245 26.1626C37.8052 24.5569 37.0171 23.082 35.8597 21.9243C34.7023 20.7667 33.2277 19.9783 31.6223 19.6589C30.017 19.3395 28.353 19.5034 26.8408 20.1299C25.3286 20.7565 24.0361 21.8175 23.1267 23.1787C22.2174 24.54 21.732 26.1404 21.732 27.7775Z" fill="#F0F0F0" stroke="black"/>
</svg>
